<mxfile host="app.diagrams.net" modified="2021-04-22T13:33:08.622Z" agent="5.0 (Macintosh; Intel Mac OS X 10_15_6) AppleWebKit/537.36 (KHTML, like Gecko) Chrome/89.0.4389.114 Safari/537.36" etag="JIEOE24RKKx6cxd_yqyq" version="12.9.7" type="github">
  <diagram id="hbpDbGkUQY02aLziDPMM" name="Page-1">
    <mxGraphModel dx="946" dy="618" grid="1" gridSize="10" guides="1" tooltips="1" connect="1" arrows="1" fold="1" page="1" pageScale="1" pageWidth="1169" pageHeight="827" math="0" shadow="0">
      <root>
        <mxCell id="0" />
        <mxCell id="1" parent="0" />
        <mxCell id="Bfey8ndqpUIMnrND0FDJ-34" value="" style="rounded=0;whiteSpace=wrap;html=1;shadow=0;strokeColor=#000000;gradientColor=none;" parent="1" vertex="1">
          <mxGeometry x="430" y="730" width="720" height="530" as="geometry" />
        </mxCell>
        <mxCell id="Bfey8ndqpUIMnrND0FDJ-3" value="" style="rounded=0;whiteSpace=wrap;html=1;labelPosition=center;verticalLabelPosition=bottom;align=center;verticalAlign=top;" parent="1" vertex="1">
          <mxGeometry x="380" y="200" width="710" height="390" as="geometry" />
        </mxCell>
        <mxCell id="Bfey8ndqpUIMnrND0FDJ-4" value="&lt;h1&gt;K8S Cluster&lt;/h1&gt;&lt;p&gt;Comprise of master and worker nodes.&lt;/p&gt;" style="text;html=1;strokeColor=none;fillColor=none;spacing=5;spacingTop=-20;whiteSpace=wrap;overflow=hidden;rounded=0;" parent="1" vertex="1">
          <mxGeometry x="380" y="200" width="190" height="90" as="geometry" />
        </mxCell>
        <mxCell id="Bfey8ndqpUIMnrND0FDJ-12" value="" style="html=1;dashed=0;whitespace=wrap;fillColor=#2875E2;strokeColor=#ffffff;points=[[0.005,0.63,0],[0.1,0.2,0],[0.9,0.2,0],[0.5,0,0],[0.995,0.63,0],[0.72,0.99,0],[0.5,1,0],[0.28,0.99,0]];shape=mxgraph.kubernetes.icon;prIcon=kubelet;shadow=0;" parent="1" vertex="1">
          <mxGeometry x="620" y="290" width="50" height="48" as="geometry" />
        </mxCell>
        <mxCell id="Bfey8ndqpUIMnrND0FDJ-14" value="Podspec" style="edgeStyle=orthogonalEdgeStyle;rounded=0;orthogonalLoop=1;jettySize=auto;html=1;entryX=0.005;entryY=0.63;entryDx=0;entryDy=0;entryPerimeter=0;" parent="1" source="Bfey8ndqpUIMnrND0FDJ-13" target="Bfey8ndqpUIMnrND0FDJ-12" edge="1">
          <mxGeometry relative="1" as="geometry" />
        </mxCell>
        <mxCell id="Bfey8ndqpUIMnrND0FDJ-21" style="edgeStyle=orthogonalEdgeStyle;rounded=0;orthogonalLoop=1;jettySize=auto;html=1;entryX=0.005;entryY=0.63;entryDx=0;entryDy=0;entryPerimeter=0;" parent="1" source="Bfey8ndqpUIMnrND0FDJ-13" target="Bfey8ndqpUIMnrND0FDJ-18" edge="1">
          <mxGeometry relative="1" as="geometry" />
        </mxCell>
        <mxCell id="mce9ujAxJOzOzg-gAjQL-8" value="Podspec" style="text;html=1;align=center;verticalAlign=middle;resizable=0;points=[];labelBackgroundColor=#ffffff;" parent="Bfey8ndqpUIMnrND0FDJ-21" vertex="1" connectable="0">
          <mxGeometry x="0.103" y="1" relative="1" as="geometry">
            <mxPoint as="offset" />
          </mxGeometry>
        </mxCell>
        <mxCell id="Bfey8ndqpUIMnrND0FDJ-13" value="Master" style="html=1;dashed=0;whitespace=wrap;fillColor=#2875E2;strokeColor=#ffffff;points=[[0.005,0.63,0],[0.1,0.2,0],[0.9,0.2,0],[0.5,0,0],[0.995,0.63,0],[0.72,0.99,0],[0.5,1,0],[0.28,0.99,0]];shape=mxgraph.kubernetes.icon;prIcon=master;shadow=0;labelPosition=center;verticalLabelPosition=bottom;align=center;verticalAlign=top;" parent="1" vertex="1">
          <mxGeometry x="410" y="330" width="110" height="120" as="geometry" />
        </mxCell>
        <mxCell id="Bfey8ndqpUIMnrND0FDJ-30" style="edgeStyle=orthogonalEdgeStyle;rounded=0;orthogonalLoop=1;jettySize=auto;html=1;entryX=0.5;entryY=0;entryDx=0;entryDy=0;entryPerimeter=0;" parent="1" source="Bfey8ndqpUIMnrND0FDJ-15" target="Bfey8ndqpUIMnrND0FDJ-16" edge="1">
          <mxGeometry relative="1" as="geometry">
            <Array as="points">
              <mxPoint x="815" y="250" />
              <mxPoint x="725" y="250" />
            </Array>
          </mxGeometry>
        </mxCell>
        <mxCell id="Bfey8ndqpUIMnrND0FDJ-15" value="" style="html=1;dashed=0;whitespace=wrap;fillColor=#2875E2;strokeColor=#ffffff;points=[[0.005,0.63,0],[0.1,0.2,0],[0.9,0.2,0],[0.5,0,0],[0.995,0.63,0],[0.72,0.99,0],[0.5,1,0],[0.28,0.99,0]];shape=mxgraph.kubernetes.icon;prIcon=k_proxy;shadow=0;" parent="1" vertex="1">
          <mxGeometry x="790" y="290" width="50" height="48" as="geometry" />
        </mxCell>
        <mxCell id="Bfey8ndqpUIMnrND0FDJ-16" value="Node" style="html=1;dashed=0;whitespace=wrap;fillColor=#2875E2;strokeColor=#ffffff;points=[[0.005,0.63,0],[0.1,0.2,0],[0.9,0.2,0],[0.5,0,0],[0.995,0.63,0],[0.72,0.99,0],[0.5,1,0],[0.28,0.99,0]];shape=mxgraph.kubernetes.icon;prIcon=node;shadow=0;labelPosition=center;verticalLabelPosition=bottom;align=center;verticalAlign=top;" parent="1" vertex="1">
          <mxGeometry x="650" y="290" width="150" height="110" as="geometry" />
        </mxCell>
        <mxCell id="Bfey8ndqpUIMnrND0FDJ-18" value="" style="html=1;dashed=0;whitespace=wrap;fillColor=#2875E2;strokeColor=#ffffff;points=[[0.005,0.63,0],[0.1,0.2,0],[0.9,0.2,0],[0.5,0,0],[0.995,0.63,0],[0.72,0.99,0],[0.5,1,0],[0.28,0.99,0]];shape=mxgraph.kubernetes.icon;prIcon=kubelet;shadow=0;" parent="1" vertex="1">
          <mxGeometry x="620" y="430" width="50" height="48" as="geometry" />
        </mxCell>
        <mxCell id="Bfey8ndqpUIMnrND0FDJ-32" style="edgeStyle=orthogonalEdgeStyle;rounded=0;orthogonalLoop=1;jettySize=auto;html=1;entryX=0.72;entryY=0.99;entryDx=0;entryDy=0;entryPerimeter=0;" parent="1" source="Bfey8ndqpUIMnrND0FDJ-19" target="Bfey8ndqpUIMnrND0FDJ-20" edge="1">
          <mxGeometry relative="1" as="geometry">
            <Array as="points">
              <mxPoint x="805" y="539" />
            </Array>
          </mxGeometry>
        </mxCell>
        <mxCell id="Bfey8ndqpUIMnrND0FDJ-19" value="" style="html=1;dashed=0;whitespace=wrap;fillColor=#2875E2;strokeColor=#ffffff;points=[[0.005,0.63,0],[0.1,0.2,0],[0.9,0.2,0],[0.5,0,0],[0.995,0.63,0],[0.72,0.99,0],[0.5,1,0],[0.28,0.99,0]];shape=mxgraph.kubernetes.icon;prIcon=k_proxy;shadow=0;" parent="1" vertex="1">
          <mxGeometry x="780" y="430" width="50" height="48" as="geometry" />
        </mxCell>
        <mxCell id="Bfey8ndqpUIMnrND0FDJ-20" value="Node" style="html=1;dashed=0;whitespace=wrap;fillColor=#2875E2;strokeColor=#ffffff;points=[[0.005,0.63,0],[0.1,0.2,0],[0.9,0.2,0],[0.5,0,0],[0.995,0.63,0],[0.72,0.99,0],[0.5,1,0],[0.28,0.99,0]];shape=mxgraph.kubernetes.icon;prIcon=node;shadow=0;labelPosition=center;verticalLabelPosition=bottom;align=center;verticalAlign=top;" parent="1" vertex="1">
          <mxGeometry x="650" y="430" width="150" height="110" as="geometry" />
        </mxCell>
        <mxCell id="Bfey8ndqpUIMnrND0FDJ-23" style="edgeStyle=orthogonalEdgeStyle;rounded=0;orthogonalLoop=1;jettySize=auto;html=1;entryX=0.005;entryY=0.63;entryDx=0;entryDy=0;entryPerimeter=0;" parent="1" source="Bfey8ndqpUIMnrND0FDJ-22" target="Bfey8ndqpUIMnrND0FDJ-13" edge="1">
          <mxGeometry relative="1" as="geometry">
            <Array as="points">
              <mxPoint x="350" y="645" />
              <mxPoint x="350" y="406" />
            </Array>
          </mxGeometry>
        </mxCell>
        <mxCell id="mce9ujAxJOzOzg-gAjQL-11" value="Spec" style="text;html=1;align=center;verticalAlign=middle;resizable=0;points=[];labelBackgroundColor=#ffffff;" parent="Bfey8ndqpUIMnrND0FDJ-23" vertex="1" connectable="0">
          <mxGeometry x="-0.2241" y="-3" relative="1" as="geometry">
            <mxPoint as="offset" />
          </mxGeometry>
        </mxCell>
        <mxCell id="Bfey8ndqpUIMnrND0FDJ-22" value="&amp;gt;kubectl" style="fontColor=#0066CC;verticalAlign=middle;verticalLabelPosition=middle;labelPosition=center;align=center;html=1;outlineConnect=0;fillColor=#CCCCCC;strokeColor=#6881B3;gradientColor=none;gradientDirection=north;strokeWidth=2;shape=mxgraph.networks.pc;shadow=0;" parent="1" vertex="1">
          <mxGeometry x="380" y="610" width="100" height="70" as="geometry" />
        </mxCell>
        <mxCell id="Bfey8ndqpUIMnrND0FDJ-27" style="edgeStyle=orthogonalEdgeStyle;rounded=0;orthogonalLoop=1;jettySize=auto;html=1;entryX=0.005;entryY=0.63;entryDx=0;entryDy=0;entryPerimeter=0;" parent="1" source="Bfey8ndqpUIMnrND0FDJ-24" target="Bfey8ndqpUIMnrND0FDJ-26" edge="1">
          <mxGeometry relative="1" as="geometry">
            <Array as="points">
              <mxPoint x="1120" y="643" />
              <mxPoint x="1120" y="381" />
            </Array>
          </mxGeometry>
        </mxCell>
        <mxCell id="Bfey8ndqpUIMnrND0FDJ-24" value="www.service.com" style="fontColor=#0066CC;verticalAlign=middle;verticalLabelPosition=middle;labelPosition=center;align=center;html=1;outlineConnect=0;fillColor=#CCCCCC;strokeColor=#6881B3;gradientColor=none;gradientDirection=north;strokeWidth=2;shape=mxgraph.networks.terminal;shadow=0;" parent="1" vertex="1">
          <mxGeometry x="970" y="615" width="110" height="65" as="geometry" />
        </mxCell>
        <mxCell id="Bfey8ndqpUIMnrND0FDJ-28" style="edgeStyle=orthogonalEdgeStyle;rounded=0;orthogonalLoop=1;jettySize=auto;html=1;entryX=0.995;entryY=0.63;entryDx=0;entryDy=0;entryPerimeter=0;" parent="1" source="Bfey8ndqpUIMnrND0FDJ-26" target="Bfey8ndqpUIMnrND0FDJ-15" edge="1">
          <mxGeometry relative="1" as="geometry" />
        </mxCell>
        <mxCell id="Bfey8ndqpUIMnrND0FDJ-29" style="edgeStyle=orthogonalEdgeStyle;rounded=0;orthogonalLoop=1;jettySize=auto;html=1;entryX=0.995;entryY=0.63;entryDx=0;entryDy=0;entryPerimeter=0;" parent="1" source="Bfey8ndqpUIMnrND0FDJ-26" target="Bfey8ndqpUIMnrND0FDJ-19" edge="1">
          <mxGeometry relative="1" as="geometry" />
        </mxCell>
        <mxCell id="Bfey8ndqpUIMnrND0FDJ-26" value="Ingress" style="html=1;dashed=0;whitespace=wrap;fillColor=#2875E2;strokeColor=#ffffff;points=[[0.005,0.63,0],[0.1,0.2,0],[0.9,0.2,0],[0.5,0,0],[0.995,0.63,0],[0.72,0.99,0],[0.5,1,0],[0.28,0.99,0]];shape=mxgraph.kubernetes.icon;prIcon=ing;shadow=0;labelPosition=center;verticalLabelPosition=bottom;align=center;verticalAlign=top;allowArrows=1;direction=west;" parent="1" vertex="1">
          <mxGeometry x="970" y="342.5" width="100" height="105" as="geometry" />
        </mxCell>
        <mxCell id="Bfey8ndqpUIMnrND0FDJ-33" value="Node" style="html=1;dashed=0;whitespace=wrap;fillColor=#2875E2;strokeColor=#ffffff;points=[[0.005,0.63,0],[0.1,0.2,0],[0.9,0.2,0],[0.5,0,0],[0.995,0.63,0],[0.72,0.99,0],[0.5,1,0],[0.28,0.99,0]];shape=mxgraph.kubernetes.icon;prIcon=node;shadow=0;labelPosition=center;verticalLabelPosition=bottom;align=center;verticalAlign=top;" parent="1" vertex="1">
          <mxGeometry x="430" y="730" width="145" height="110" as="geometry" />
        </mxCell>
        <mxCell id="Bfey8ndqpUIMnrND0FDJ-35" value="&amp;nbsp; &amp;nbsp; &amp;nbsp; &amp;nbsp; &amp;nbsp; &amp;nbsp; &amp;nbsp; &amp;nbsp; &amp;nbsp; &amp;nbsp; &amp;nbsp; Deployment" style="rounded=0;whiteSpace=wrap;html=1;shadow=0;strokeColor=#000000;gradientColor=none;glass=0;comic=0;labelPosition=center;verticalLabelPosition=bottom;align=center;verticalAlign=top;treeFolding=0;" parent="1" vertex="1">
          <mxGeometry x="690" y="790" width="350" height="390" as="geometry" />
        </mxCell>
        <mxCell id="Bfey8ndqpUIMnrND0FDJ-37" value="ClusterIP/&lt;br&gt;LoadBalancer&lt;br&gt;Service" style="rounded=1;whiteSpace=wrap;html=1;shadow=0;glass=0;comic=0;strokeColor=#000000;gradientColor=none;" parent="1" vertex="1">
          <mxGeometry x="570" y="840" width="120" height="60" as="geometry" />
        </mxCell>
        <mxCell id="Bfey8ndqpUIMnrND0FDJ-38" value="Pod" style="html=1;dashed=0;whitespace=wrap;fillColor=#2875E2;strokeColor=#ffffff;points=[[0.005,0.63,0],[0.1,0.2,0],[0.9,0.2,0],[0.5,0,0],[0.995,0.63,0],[0.72,0.99,0],[0.5,1,0],[0.28,0.99,0]];shape=mxgraph.kubernetes.icon;prIcon=pod;rounded=0;shadow=0;glass=0;comic=0;labelPosition=center;verticalLabelPosition=bottom;align=center;verticalAlign=top;" parent="1" vertex="1">
          <mxGeometry x="740" y="810" width="50" height="48" as="geometry" />
        </mxCell>
        <mxCell id="Bfey8ndqpUIMnrND0FDJ-39" value="Pod" style="html=1;dashed=0;whitespace=wrap;fillColor=#2875E2;strokeColor=#ffffff;points=[[0.005,0.63,0],[0.1,0.2,0],[0.9,0.2,0],[0.5,0,0],[0.995,0.63,0],[0.72,0.99,0],[0.5,1,0],[0.28,0.99,0]];shape=mxgraph.kubernetes.icon;prIcon=pod;rounded=0;shadow=0;glass=0;comic=0;labelPosition=center;verticalLabelPosition=bottom;align=center;verticalAlign=top;" parent="1" vertex="1">
          <mxGeometry x="740" y="1070" width="50" height="48" as="geometry" />
        </mxCell>
        <mxCell id="Bfey8ndqpUIMnrND0FDJ-41" style="edgeStyle=orthogonalEdgeStyle;rounded=0;orthogonalLoop=1;jettySize=auto;html=1;entryX=0;entryY=0.5;entryDx=0;entryDy=0;" parent="1" source="Bfey8ndqpUIMnrND0FDJ-40" target="Bfey8ndqpUIMnrND0FDJ-37" edge="1">
          <mxGeometry relative="1" as="geometry" />
        </mxCell>
        <mxCell id="Bfey8ndqpUIMnrND0FDJ-65" style="edgeStyle=orthogonalEdgeStyle;rounded=0;orthogonalLoop=1;jettySize=auto;html=1;entryX=0;entryY=0.5;entryDx=0;entryDy=0;fontColor=none;" parent="1" source="Bfey8ndqpUIMnrND0FDJ-40" target="Bfey8ndqpUIMnrND0FDJ-64" edge="1">
          <mxGeometry relative="1" as="geometry">
            <Array as="points">
              <mxPoint x="500" y="904" />
              <mxPoint x="500" y="960" />
            </Array>
          </mxGeometry>
        </mxCell>
        <mxCell id="Bfey8ndqpUIMnrND0FDJ-40" value="" style="html=1;dashed=0;whitespace=wrap;fillColor=#2875E2;strokeColor=#ffffff;points=[[0.005,0.63,0],[0.1,0.2,0],[0.9,0.2,0],[0.5,0,0],[0.995,0.63,0],[0.72,0.99,0],[0.5,1,0],[0.28,0.99,0]];shape=mxgraph.kubernetes.icon;prIcon=k_proxy;rounded=0;shadow=0;glass=0;comic=0;" parent="1" vertex="1">
          <mxGeometry x="440" y="880" width="50" height="48" as="geometry" />
        </mxCell>
        <mxCell id="Bfey8ndqpUIMnrND0FDJ-45" value="" style="rounded=0;whiteSpace=wrap;html=1;shadow=0;glass=0;comic=0;strokeColor=#000000;gradientColor=none;opacity=20;" parent="1" vertex="1">
          <mxGeometry x="730" y="804" width="230" height="166" as="geometry" />
        </mxCell>
        <mxCell id="Bfey8ndqpUIMnrND0FDJ-46" value="" style="rounded=1;whiteSpace=wrap;html=1;shadow=0;glass=0;comic=0;strokeColor=#000000;gradientColor=none;opacity=20;" parent="1" vertex="1">
          <mxGeometry x="810" y="820" width="120" height="60" as="geometry" />
        </mxCell>
        <mxCell id="Bfey8ndqpUIMnrND0FDJ-50" value="" style="rounded=1;whiteSpace=wrap;html=1;shadow=0;glass=0;comic=0;strokeColor=#000000;gradientColor=none;opacity=20;" parent="1" vertex="1">
          <mxGeometry x="820" y="830" width="120" height="60" as="geometry" />
        </mxCell>
        <mxCell id="Bfey8ndqpUIMnrND0FDJ-51" value="" style="rounded=1;whiteSpace=wrap;html=1;shadow=0;glass=0;comic=0;strokeColor=#000000;gradientColor=none;opacity=20;" parent="1" vertex="1">
          <mxGeometry x="830" y="840" width="120" height="60" as="geometry" />
        </mxCell>
        <mxCell id="Bfey8ndqpUIMnrND0FDJ-52" value="Container" style="rounded=1;whiteSpace=wrap;html=1;shadow=0;glass=0;comic=0;strokeColor=#000000;gradientColor=none;opacity=20;" parent="1" vertex="1">
          <mxGeometry x="840" y="850" width="120" height="60" as="geometry" />
        </mxCell>
        <mxCell id="Bfey8ndqpUIMnrND0FDJ-53" value="" style="rounded=0;whiteSpace=wrap;html=1;shadow=0;glass=0;comic=0;strokeColor=#000000;gradientColor=none;opacity=20;" parent="1" vertex="1">
          <mxGeometry x="725" y="983" width="230" height="166" as="geometry" />
        </mxCell>
        <mxCell id="Bfey8ndqpUIMnrND0FDJ-54" value="" style="rounded=1;whiteSpace=wrap;html=1;shadow=0;glass=0;comic=0;strokeColor=#000000;gradientColor=none;opacity=20;" parent="1" vertex="1">
          <mxGeometry x="805" y="1000" width="120" height="60" as="geometry" />
        </mxCell>
        <mxCell id="Bfey8ndqpUIMnrND0FDJ-55" value="" style="rounded=1;whiteSpace=wrap;html=1;shadow=0;glass=0;comic=0;strokeColor=#000000;gradientColor=none;opacity=20;" parent="1" vertex="1">
          <mxGeometry x="815" y="1010" width="120" height="60" as="geometry" />
        </mxCell>
        <mxCell id="Bfey8ndqpUIMnrND0FDJ-56" value="" style="rounded=1;whiteSpace=wrap;html=1;shadow=0;glass=0;comic=0;strokeColor=#000000;gradientColor=none;opacity=20;" parent="1" vertex="1">
          <mxGeometry x="825" y="1020" width="120" height="60" as="geometry" />
        </mxCell>
        <mxCell id="Bfey8ndqpUIMnrND0FDJ-57" value="Container" style="rounded=1;whiteSpace=wrap;html=1;shadow=0;glass=0;comic=0;strokeColor=#000000;gradientColor=none;opacity=20;" parent="1" vertex="1">
          <mxGeometry x="835" y="1030" width="120" height="60" as="geometry" />
        </mxCell>
        <mxCell id="mce9ujAxJOzOzg-gAjQL-10" value="" style="edgeStyle=orthogonalEdgeStyle;rounded=0;orthogonalLoop=1;jettySize=auto;html=1;" parent="1" source="Bfey8ndqpUIMnrND0FDJ-58" edge="1">
          <mxGeometry relative="1" as="geometry">
            <mxPoint x="565" y="1236" as="targetPoint" />
          </mxGeometry>
        </mxCell>
        <mxCell id="Bfey8ndqpUIMnrND0FDJ-58" value="Pod" style="rounded=0;whiteSpace=wrap;html=1;shadow=0;glass=0;comic=0;strokeColor=#000000;gradientColor=none;opacity=20;labelPosition=center;verticalLabelPosition=bottom;align=center;verticalAlign=top;" parent="1" vertex="1">
          <mxGeometry x="450" y="990" width="230" height="166" as="geometry" />
        </mxCell>
        <mxCell id="Bfey8ndqpUIMnrND0FDJ-59" value="" style="rounded=1;whiteSpace=wrap;html=1;shadow=0;glass=0;comic=0;strokeColor=#000000;gradientColor=none;opacity=20;" parent="1" vertex="1">
          <mxGeometry x="530" y="1006" width="120" height="60" as="geometry" />
        </mxCell>
        <mxCell id="Bfey8ndqpUIMnrND0FDJ-60" value="" style="rounded=1;whiteSpace=wrap;html=1;shadow=0;glass=0;comic=0;strokeColor=#000000;gradientColor=none;opacity=20;" parent="1" vertex="1">
          <mxGeometry x="540" y="1016" width="120" height="60" as="geometry" />
        </mxCell>
        <mxCell id="Bfey8ndqpUIMnrND0FDJ-61" value="" style="rounded=1;whiteSpace=wrap;html=1;shadow=0;glass=0;comic=0;strokeColor=#000000;gradientColor=none;opacity=20;" parent="1" vertex="1">
          <mxGeometry x="550" y="1026" width="120" height="60" as="geometry" />
        </mxCell>
        <mxCell id="Bfey8ndqpUIMnrND0FDJ-62" value="Container" style="rounded=1;whiteSpace=wrap;html=1;shadow=0;glass=0;comic=0;strokeColor=#000000;gradientColor=none;opacity=20;" parent="1" vertex="1">
          <mxGeometry x="560" y="1036" width="120" height="60" as="geometry" />
        </mxCell>
        <mxCell id="Bfey8ndqpUIMnrND0FDJ-63" value="&lt;span style=&quot;background-color: rgb(0 , 0 , 0)&quot;&gt;Pod&lt;/span&gt;" style="html=1;dashed=0;whitespace=wrap;fillColor=#2875E2;strokeColor=#ffffff;points=[[0.005,0.63,0],[0.1,0.2,0],[0.9,0.2,0],[0.5,0,0],[0.995,0.63,0],[0.72,0.99,0],[0.5,1,0],[0.28,0.99,0]];shape=mxgraph.kubernetes.icon;prIcon=pod;rounded=0;shadow=0;glass=0;comic=0;labelPosition=center;verticalLabelPosition=bottom;align=center;verticalAlign=top;noLabel=1;fontColor=none;" parent="1" vertex="1">
          <mxGeometry x="460" y="1076" width="50" height="48" as="geometry" />
        </mxCell>
        <mxCell id="Bfey8ndqpUIMnrND0FDJ-64" value="NodePort&lt;br&gt;Service" style="rounded=1;whiteSpace=wrap;html=1;shadow=0;glass=0;comic=0;strokeColor=#000000;gradientColor=none;" parent="1" vertex="1">
          <mxGeometry x="520" y="930" width="120" height="60" as="geometry" />
        </mxCell>
        <mxCell id="mce9ujAxJOzOzg-gAjQL-1" value="Docker Engine" style="rounded=0;whiteSpace=wrap;html=1;" parent="1" vertex="1">
          <mxGeometry x="730" y="910" width="230" height="60" as="geometry" />
        </mxCell>
        <mxCell id="mce9ujAxJOzOzg-gAjQL-2" value="Docker Engine" style="rounded=0;whiteSpace=wrap;html=1;" parent="1" vertex="1">
          <mxGeometry x="785" y="1089" width="170" height="60" as="geometry" />
        </mxCell>
        <mxCell id="mce9ujAxJOzOzg-gAjQL-3" value="Docker Engine" style="rounded=0;whiteSpace=wrap;html=1;" parent="1" vertex="1">
          <mxGeometry x="530" y="1096" width="150" height="60" as="geometry" />
        </mxCell>
        <mxCell id="mce9ujAxJOzOzg-gAjQL-5" value="" style="edgeStyle=orthogonalEdgeStyle;rounded=0;orthogonalLoop=1;jettySize=auto;html=1;exitX=0.98;exitY=0.48;exitDx=0;exitDy=0;exitPerimeter=0;" parent="1" source="mce9ujAxJOzOzg-gAjQL-4" target="Bfey8ndqpUIMnrND0FDJ-58" edge="1">
          <mxGeometry relative="1" as="geometry">
            <Array as="points">
              <mxPoint x="490" y="1215" />
              <mxPoint x="490" y="1210" />
              <mxPoint x="530" y="1210" />
              <mxPoint x="530" y="1176" />
              <mxPoint x="565" y="1176" />
            </Array>
          </mxGeometry>
        </mxCell>
        <mxCell id="mce9ujAxJOzOzg-gAjQL-6" style="edgeStyle=orthogonalEdgeStyle;rounded=0;orthogonalLoop=1;jettySize=auto;html=1;entryX=0.441;entryY=1.017;entryDx=0;entryDy=0;entryPerimeter=0;" parent="1" source="mce9ujAxJOzOzg-gAjQL-4" target="mce9ujAxJOzOzg-gAjQL-2" edge="1">
          <mxGeometry relative="1" as="geometry">
            <Array as="points">
              <mxPoint x="510" y="1216" />
              <mxPoint x="510" y="1240" />
              <mxPoint x="865" y="1240" />
            </Array>
          </mxGeometry>
        </mxCell>
        <mxCell id="mce9ujAxJOzOzg-gAjQL-7" style="edgeStyle=orthogonalEdgeStyle;rounded=0;orthogonalLoop=1;jettySize=auto;html=1;entryX=1;entryY=0.5;entryDx=0;entryDy=0;exitX=1;exitY=0.46;exitDx=0;exitDy=0;exitPerimeter=0;" parent="1" source="mce9ujAxJOzOzg-gAjQL-4" target="Bfey8ndqpUIMnrND0FDJ-52" edge="1">
          <mxGeometry relative="1" as="geometry">
            <Array as="points">
              <mxPoint x="1090" y="1214" />
              <mxPoint x="1090" y="880" />
            </Array>
          </mxGeometry>
        </mxCell>
        <mxCell id="mce9ujAxJOzOzg-gAjQL-4" value="" style="html=1;dashed=0;whitespace=wrap;fillColor=#2875E2;strokeColor=#ffffff;points=[[0.005,0.63,0],[0.1,0.2,0],[0.9,0.2,0],[0.5,0,0],[0.995,0.63,0],[0.72,0.99,0],[0.5,1,0],[0.28,0.99,0]];shape=mxgraph.kubernetes.icon;prIcon=kubelet;shadow=0;" parent="1" vertex="1">
          <mxGeometry x="440" y="1191" width="50" height="50" as="geometry" />
        </mxCell>
      </root>
    </mxGraphModel>
  </diagram>
</mxfile>
